HIERARCHY
ROOT pelvis
{
  OFFSET 0 100 0
  CHANNELS 6 Xposition Yposition Zposition Zrotation Xrotation Yrotation
  JOINT pelvis_right_femur
  {
    OFFSET -10.78128 -3.44521 -0.5502486
    CHANNELS 3 Zrotation Xrotation Yrotation
    JOINT right_femur_tibia
    {
      OFFSET -0.8047443 -44.0398 -0.1307829
      CHANNELS 3 Zrotation Xrotation Yrotation
      JOINT right_tibia_foot
      {
        OFFSET 3.006224 -47.83518 -5
        CHANNELS 3 Zrotation Xrotation Yrotation
        End Site
        {
          OFFSET 0 -5 15
        }
      }
    }
  }
  JOINT pelvis_left_femur
  {
    OFFSET 10.78128 -3.44521 -0.5502486
    CHANNELS 3 Zrotation Xrotation Yrotation
    JOINT left_femur_tibia
    {
      OFFSET 0.8047443 -44.0398 -0.1307829
      CHANNELS 3 Zrotation Xrotation Yrotation
      JOINT left_tibia_foot
      {
        OFFSET -4.370144 -48.10324 -4.275266
        CHANNELS 3 Zrotation Xrotation Yrotation
        End Site
        {
          OFFSET 0 -5 15
        }
      }
    }
  }
  JOINT pelvis_spine1
  {
    OFFSET 0 6.468898 -3.129235
    CHANNELS 3 Zrotation Xrotation Yrotation
    JOINT spine1
    {
      OFFSET 0 23.15396 4.99043
      CHANNELS 3 Zrotation Xrotation Yrotation
      JOINT spine2
      {
        OFFSET 0 20.79997 -5.064912
        CHANNELS 3 Zrotation Xrotation Yrotation
        JOINT neck
        {
          OFFSET 0 14.38658 9.616178
          CHANNELS 3 Zrotation Xrotation Yrotation
          End Site
          {
            OFFSET 0 20 0
          }
        }
      }
      JOINT right_manubrium
      {
        OFFSET -5.722621 16.35077 3.967754
        CHANNELS 3 Zrotation Xrotation Yrotation
        JOINT right_clavicle
        {
          OFFSET -13.16364 1.694482 -4.693211
          CHANNELS 3 Zrotation Xrotation Yrotation
          JOINT right_humerus
          {
            OFFSET -28.5034 -0.3100689 -2.792744
            CHANNELS 3 Zrotation Xrotation Yrotation
            JOINT right_radius
            {
              OFFSET -25.15693 0.02248979 -1.271978
              CHANNELS 3 Zrotation Xrotation Yrotation
              End Site
              {
                OFFSET -15 0 0
              }
            }
          }
        }
      }
      JOINT left_manubrium
      {
        OFFSET 5.722621 16.35077 3.967754
        CHANNELS 3 Zrotation Xrotation Yrotation
        JOINT left_clavicle
        {
          OFFSET 13.16364 1.694482 -4.693211
          CHANNELS 3 Zrotation Xrotation Yrotation
          JOINT left_humerus
          {
            OFFSET 29.39168 -1.063119 -2.237045
            CHANNELS 3 Zrotation Xrotation Yrotation
            JOINT left_radius
            {
              OFFSET 24.59957 -0.9528479 0.9047498
              CHANNELS 3 Zrotation Xrotation Yrotation
              End Site
              {
                OFFSET 15 -0 -0
              }
            }
          }
        }
      }
    }
  }
}
MOTION
Frames: 11
Frame Time: 0.0416666666667
0 103.5113 0 0.8407143 -2.11572 0.1032342 2.723406 -15.15678 6.376939 -0 36.40134 -0 -7.345295 -11.7664 -2.906363 -6.861866 10.37697 -21.38608 -0 4.833435 -0 7.60885 -16.70443 24.83166 -3.579855 -4.365898 5.605434 2.315058 9.207786 -7.789498 1.483359 22.25511 5.150468 1.189398 -24.50361 9.227447 4.371999 -21.42862 11.18486 84.63032 34.04832 -16.16385 -0 0 19.17303 -9.672835 7.285737 5.054507 7.371587 -20.04926 1.478968 -93.42948 20.29585 23.65903 0 0 -8.959949 14.80346 19.09713 -4.7211
0.3245738 103.5947 1.798937 0.6399179 -0.8853586 0.2569632 3.273324 -19.14966 7.194784 -0 37.08024 -0 -6.316188 -12.02657 -3.147291 -6.828794 11.21733 -21.77996 -0 4.767962 -0 7.075273 -18.20462 24.44945 -3.294737 -3.754095 5.664898 2.298416 9.432872 -7.650223 1.360907 22.03436 5.466938 1.591414 -24.62118 9.041132 4.306975 -21.10837 11.37177 84.89333 34.27816 -16.16523 -0 0 18.26721 -10.26657 7.736745 5.557538 6.934001 -20.16709 1.039763 -93.052 20.36653 23.30793 0 0 -10.08819 13.94138 17.74401 -3.699133
0.625181 103.4958 3.658182 0.4585406 -0.0005808606 0.3792121 3.939678 -22.49144 7.860308 -0 34.10736 -0 -5.315789 -13.34512 -3.519304 -6.640564 12.02038 -21.78881 -0 5.07889 -0 6.842247 -19.31122 24.14127 -2.860523 -2.988016 5.457193 2.476418 9.715764 -7.690169 1.292943 21.60504 6.036236 2.219545 -25.10125 9.110408 4.541877 -20.3805 11.55757 85.6396 34.60614 -17.21344 -0 0 16.59205 -10.00492 8.296108 5.544744 6.573802 -20.47989 0.387998 -92.56447 20.83062 22.20001 0 0 -12.34031 13.22596 16.04161 -2.568795
0.9086877 103.2127 5.674622 0.283612 0.7987575 0.4538914 4.577596 -25.33104 8.207956 -0 30.30859 -0 -4.62462 -14.07335 -3.651282 -6.494214 12.65621 -21.56037 -0 5.547515 -0 6.752073 -20.19898 23.81037 -2.57535 -2.496241 5.151902 2.721007 9.842679 -7.853248 1.257785 21.26976 6.447928 2.563242 -25.58182 9.304448 4.660482 -19.90251 11.691 86.37188 34.75262 -18.21607 -0 0 15.39928 -9.479594 8.55084 5.380904 6.383103 -20.67569 -0.01663178 -92.02176 20.92122 21.16943 0 0 -14.11409 13.15943 14.93194 -2.319659
1.174783 102.7133 8.05135 0.1247294 1.335114 0.5138458 5.012504 -27.87649 7.841294 -0 25.70814 -0 -4.267165 -13.40156 -3.570875 -6.363952 13.26154 -20.66564 -0 6.298444 -0 6.47796 -21.00416 23.0808 -2.321737 -2.139461 4.855034 2.943142 9.88955 -8.003189 1.229009 20.96847 6.799241 2.850348 -25.9854 9.490773 4.827005 -19.43235 11.75531 86.9384 34.96101 -19.15166 -0 0 14.36895 -8.91752 8.794018 5.21651 6.310096 -20.85506 -0.350069 -91.56627 21.10937 20.26659 0 0 -15.80273 13.12631 14.04814 -2.030717
1.417997 102.0303 10.94386 -0.0202815 1.697284 0.6266783 5.193549 -30.19264 6.830873 -0 21.31013 -0 -4.232023 -11.24034 -3.296938 -6.275188 13.8884 -19.25831 -0 7.253382 -0 5.823344 -21.82294 21.9109 -2.104568 -1.85039 4.569499 3.150293 9.888371 -8.140303 1.195542 20.69793 7.106941 3.080112 -26.33802 9.663526 4.957239 -19.01325 11.79883 87.41775 35.17639 -19.96278 -0 0 13.46611 -8.424343 8.998533 5.112446 6.279689 -21.00515 -0.6281574 -91.10233 21.23362 19.43766 0 0 -17.38719 13.14935 13.26981 -1.826318
1.626805 101.1882 14.50085 -0.1245436 1.77696 0.8573531 5.02127 -32.02348 5.205419 -0 17.29249 -0 -4.435815 -7.961223 -2.998195 -6.189329 14.60912 -17.34255 -0 8.523445 -0 4.555492 -22.59341 20.19455 -1.910209 -1.605201 4.300142 3.339375 9.854695 -8.258322 1.155287 20.44897 7.383696 3.277579 -26.64149 9.810508 5.066003 -18.61661 11.82648 87.82181 35.40956 -20.67473 -0 0 12.63551 -8.0211 9.194801 5.07642 6.279942 -21.14054 -0.8749178 -90.63552 21.33118 18.66539 0 0 -18.9077 13.16607 12.54836 -1.62175
1.791532 100.232 18.80635 -0.1744108 1.555865 1.236221 4.576306 -33.03999 3.288513 -0 13.85156 -0 -4.742042 -4.416349 -2.844437 -6.067662 15.41908 -15.16362 -0 10.2717 -0 2.71515 -23.08091 18.0485 -1.736709 -1.387541 4.054606 3.505622 9.804991 -8.35637 1.103519 20.22144 7.633654 3.449382 -26.88915 9.918442 5.139527 -18.24444 11.85056 88.17043 35.64376 -21.28442 -0 0 11.8596 -7.760705 9.392928 5.128036 6.295425 -21.26898 -1.100386 -90.14983 21.37733 17.93524 0 0 -20.35902 13.14657 11.84897 -1.405037
1.908293 99.23503 23.87957 -0.1811588 1.037526 1.747332 4.075393 -33.00347 1.498279 -0 11.15371 -0 -5.033909 -1.360417 -2.960149 -5.857223 16.25071 -12.97641 -0 12.77835 -0 0.5265961 -22.95453 15.68846 -1.58278 -1.194462 3.838867 3.645267 9.750438 -8.435826 1.040595 20.01629 7.854996 3.599513 -27.07545 9.97938 5.179845 -17.89587 11.87423 88.47248 35.86503 -21.80246 -0 0 11.13402 -7.661171 9.600842 5.264725 6.322121 -21.3974 -1.30918 -89.65467 21.37717 17.24873 0 0 -21.7201 13.06727 11.17054 -1.154454
1.977637 98.30976 29.67876 -0.1828004 0.235391 2.32373 3.788491 -31.80583 0.230523 -0 9.424953 -0 -5.284658 0.7443787 -3.37641 -5.502205 16.95819 -11.00503 -0 16.4124 -0 -1.647506 -21.88406 13.43949 -1.449671 -1.026623 3.662723 3.752116 9.70471 -8.49834 0.9683807 19.83838 8.040731 3.727546 -27.1911 9.984859 5.186961 -17.58029 11.90072 88.73315 36.04915 -22.22976 -0 0 10.47371 -7.741123 9.821006 5.48006 6.353315 -21.52884 -1.502142 -89.16857 21.33229 16.62283 0 0 -22.93928 12.90885 10.5264 -0.8569256
1.998254 97.61636 36.10202 -0.2389724 -0.8344564 2.845982 3.940883 -29.4233 -0.2560072 -0 8.895781 -0 -5.592564 1.746127 -4.006736 -4.958622 17.28512 -9.41731 -0 21.64434 -0 -3.401263 -19.62557 11.69894 -1.340453 -0.8873508 3.541717 3.816555 9.685564 -8.544236 0.8917034 19.69779 8.177541 3.829549 -27.22349 9.926573 5.162984 -17.31877 11.93268 88.94941 36.16206 -22.55355 -0 0 9.918615 -8.011438 10.04968 5.758373 6.376328 -21.6594 -1.676486 -88.72983 21.25026 16.10138 0 0 -23.91979 12.65515 9.95064 -0.5027943
